# xmcd
# 
# Track frame offsets:
#     150
#     19791
#     37194
#     55786
#     85502
#     104923
#     121719
#     142584
#     166469
#     188124
#     205014
#     222942
# 
# Disc length: 3423
# 
# Revision: 15
# Processed by: cddbd v1.5.2PL0 Copyright (c) Steve Scherf et al.
# Submitted via: fre:ac v1.0.31
# 
DISCID=9e0d5d0c
DTITLE=Mark Knopfler - Kill To Get Crimson
DYEAR=2007
DGENRE=Rock/Pop
TTITLE0=True Love Will Never Fade
TTITLE1=The Scaffolder's Wife
TTITLE2=The Fizzy And The Still
TTITLE3=Heart Full Of Holes
TTITLE4=We Can Get Wild
TTITLE5=Secondary Waltz
TTITLE6=Punish The Monkey
TTITLE7=Let It All Go
TTITLE8=Behind With The Rent
TTITLE9=The Fish And The Bird
TTITLE10=Madame Geneva's
TTITLE11=In The Sky
EXTD=Mark Knopfler - vocals and guitars, Guy Fletcher - keyboards, Glenn Worf - bass guitar and string bass, Danny Cummings - drums and percussion. Additional musicians: Ian Lowthian - accordion, John McCusker - violin and cittern, Frank Ricotti - vibes, 
EXTD=Chris White - flute, saxophone and clarinet, Steve Sidwell - trumpet. Recorded at British Grove Studios, London. Produced by Mark Knopfler, Guy Fletcher and Chuck Ainlay. Engineered by Guy and Chuck, assisted by Rich Cooper. Mastered by Bob Ludwig at
EXTD=Gateway Mastering Studios, Portland, Maine. WARNER BROS. 281660-2.
EXTT0=
EXTT1=
EXTT2=
EXTT3=
EXTT4=
EXTT5=
EXTT6=
EXTT7=
EXTT8=
EXTT9=
EXTT10=
EXTT11=
PLAYORDER=
